# xmcd CD database file
#
# Track frame offsets:
#	182
#	17927
#	36382
#	52302
#	69342
#	82825
#	107855
#	119690
#	134370
#	153397
#	168470
#	184070
#	201305
#	223727
#	239102
#
# Disc length: 3486 seconds
#
# Revision: 5
# Processed by: cddbd v1.5.2PL0 Copyright (c) Steve Scherf et al.
# Submitted via: CDex 1.70beta2
#
DISCID=e80d9c0f
DTITLE=Fleetwood Mac - The Blues Years [CD3]
DYEAR=1990
DGENRE=Blues
TTITLE0=Fleetwood Mac
TTITLE1=First Train Home
TTITLE2=Drifting
TTITLE3=Mean Old Fireman
TTITLE4=Allow Me One More Show
TTITLE5=Just The Blues
TTITLE6=The Big Boat
TTITLE7=I'd Rather Go Blind
TTITLE8=Watch Out
TTITLE9=Homework
TTITLE10=I Can't Hold Out
TTITLE11=Like It This Way
TTITLE12=Last Night
TTITLE13=I'm Worried
TTITLE14=Words In A Tangle
EXTD=YEAR: 1990
EXTT0=
EXTT1=
EXTT2=
EXTT3=
EXTT4=
EXTT5=
EXTT6=
EXTT7=
EXTT8=
EXTT9=
EXTT10=
EXTT11=
EXTT12=
EXTT13=
EXTT14=
PLAYORDER=
